<svg width="42" height="34" viewBox="0 0 42 34" fill="none" xmlns="http://www.w3.org/2000/svg">
<path d="M8.40001 25.2H25.2V21H8.40001V25.2ZM8.40001 16.8H33.6V12.6H8.40001V16.8ZM4.2 33.6C3.045 33.6 2.0566 33.1891 1.2348 32.3673C0.413001 31.5455 0.0014 30.5564 0 29.4V4.2C0 3.045 0.411601 2.0566 1.2348 1.2348C2.058 0.413 3.0464 0.0014 4.2 0H16.8L21 4.2H37.8C38.955 4.2 39.9441 4.6116 40.7673 5.4348C41.5905 6.25801 42.0014 7.24641 42 8.40001V29.4C42 30.555 41.5891 31.5441 40.7673 32.3673C39.9455 33.1905 38.9564 33.6014 37.8 33.6H4.2ZM4.2 29.4H37.8V8.40001H19.2675L15.0675 4.2H4.2V29.4Z" fill="white"/>
</svg>
