<svg width="42" height="42" viewBox="0 0 42 42" fill="none" xmlns="http://www.w3.org/2000/svg">
<path d="M29.4 42V37.275C27.44 36.645 25.795 35.525 24.465 33.915C23.135 32.305 22.365 30.45 22.155 28.35H26.355C26.635 29.855 27.3441 31.1059 28.4823 32.1027C29.6205 33.0995 30.9764 33.5986 32.55 33.6H38.85C39.725 33.6 40.4691 33.9066 41.0823 34.5198C41.6955 35.133 42.0014 35.8764 42 36.75V42H29.4ZM35.7 31.5C34.545 31.5 33.5566 31.0891 32.7348 30.2673C31.913 29.4455 31.5014 28.4564 31.5 27.3C31.5 26.145 31.9116 25.1566 32.7348 24.3348C33.558 23.513 34.5464 23.1014 35.7 23.1C36.855 23.1 37.8441 23.5116 38.6673 24.3348C39.4905 25.158 39.9014 26.1464 39.9 27.3C39.9 28.455 39.4891 29.4441 38.6673 30.2673C37.8455 31.0905 36.8564 31.5014 35.7 31.5ZM14.7 25.2C14.7 19.95 16.5375 15.4875 20.2125 11.8125C23.8875 8.1375 28.35 6.3 33.6 6.3V10.5C29.505 10.5 26.0316 11.9266 23.1798 14.7798C20.328 17.633 18.9014 21.1064 18.9 25.2H14.7ZM23.1 25.2C23.1 22.295 24.1241 19.8191 26.1723 17.7723C28.2205 15.7255 30.6964 14.7014 33.6 14.7V18.9C31.85 18.9 30.3625 19.5125 29.1375 20.7375C27.9125 21.9625 27.3 23.45 27.3 25.2H23.1ZM0 18.9V13.65C0 12.775 0.3066 12.0316 0.9198 11.4198C1.533 10.808 2.2764 10.5014 3.15 10.5H9.45C11.025 10.5 12.3816 10.0016 13.5198 9.0048C14.658 8.008 15.3664 6.7564 15.645 5.25H19.845C19.635 7.35 18.865 9.205 17.535 10.815C16.205 12.425 14.56 13.545 12.6 14.175V18.9H0ZM6.3 8.4C5.145 8.4 4.1566 7.9891 3.3348 7.1673C2.513 6.3455 2.1014 5.3564 2.1 4.2C2.1 3.045 2.5116 2.0566 3.3348 1.2348C4.158 0.413 5.1464 0.0014 6.3 0C7.455 0 8.4441 0.4116 9.2673 1.2348C10.0905 2.058 10.5014 3.0464 10.5 4.2C10.5 5.355 10.0891 6.3441 9.2673 7.1673C8.4455 7.9905 7.4564 8.4014 6.3 8.4Z" fill="white"/>
</svg>
