<svg width="50" height="44" viewBox="0 0 50 44" fill="none" xmlns="http://www.w3.org/2000/svg">
<path d="M30 6.25V28.125H5V6.25H30ZM5 0C2.24219 0 0 2.80273 0 6.25V28.125C0 31.5723 2.24219 34.375 5 34.375H14.1641L13.3281 37.5H7.5C6.11719 37.5 5 38.8965 5 40.625C5 42.3535 6.11719 43.75 7.5 43.75H27.5C28.8828 43.75 30 42.3535 30 40.625C30 38.8965 28.8828 37.5 27.5 37.5H21.6641L20.8281 34.375H30C32.7578 34.375 35 31.5723 35 28.125V6.25C35 2.80273 32.7578 0 30 0H5ZM41.25 0C39.1797 0 37.5 2.09961 37.5 4.6875V39.0625C37.5 41.6504 39.1797 43.75 41.25 43.75H46.25C48.3203 43.75 50 41.6504 50 39.0625V4.6875C50 2.09961 48.3203 0 46.25 0H41.25ZM42.5 6.25H45C45.6875 6.25 46.25 6.95312 46.25 7.8125C46.25 8.67188 45.6875 9.375 45 9.375H42.5C41.8125 9.375 41.25 8.67188 41.25 7.8125C41.25 6.95312 41.8125 6.25 42.5 6.25ZM41.25 14.0625C41.25 13.2031 41.8125 12.5 42.5 12.5H45C45.6875 12.5 46.25 13.2031 46.25 14.0625C46.25 14.9219 45.6875 15.625 45 15.625H42.5C41.8125 15.625 41.25 14.9219 41.25 14.0625ZM43.75 29.6875C44.413 29.6875 45.0489 30.0167 45.5178 30.6028C45.9866 31.1888 46.25 31.9837 46.25 32.8125C46.25 33.6413 45.9866 34.4362 45.5178 35.0222C45.0489 35.6083 44.413 35.9375 43.75 35.9375C43.087 35.9375 42.4511 35.6083 41.9822 35.0222C41.5134 34.4362 41.25 33.6413 41.25 32.8125C41.25 31.9837 41.5134 31.1888 41.9822 30.6028C42.4511 30.0167 43.087 29.6875 43.75 29.6875Z" fill="white"/>
</svg>
