<svg width="22" height="22" viewBox="0 0 22 22" fill="none" xmlns="http://www.w3.org/2000/svg">
<path d="M8.13656 16.2731C5.86249 16.2731 3.93809 15.4853 2.36336 13.9098C0.78862 12.3342 0.000834519 10.4098 0 8.13656C0 5.86249 0.787786 3.93809 2.36336 2.36336C3.93893 0.78862 5.86333 0.000834519 8.13656 0C10.4106 0 12.3354 0.787786 13.911 2.36336C15.4866 3.93893 16.2739 5.86333 16.2731 8.13656C16.2731 9.05453 16.1271 9.92034 15.835 10.734C15.5429 11.5477 15.1465 12.2674 14.6458 12.8933L21.6558 19.9033C21.8853 20.1328 22 20.4248 22 20.7795C22 21.1342 21.8853 21.4263 21.6558 21.6558C21.4263 21.8853 21.1342 22 20.7795 22C20.4248 22 20.1328 21.8853 19.9033 21.6558L12.8933 14.6458C12.2674 15.1465 11.5477 15.5429 10.734 15.835C9.92034 16.1271 9.05453 16.2731 8.13656 16.2731ZM8.13656 13.7696C9.70128 13.7696 11.0315 13.2221 12.1272 12.1272C13.2229 11.0323 13.7704 9.70211 13.7696 8.13656C13.7696 6.57183 13.2221 5.24203 12.1272 4.14714C11.0323 3.05225 9.70211 2.50439 8.13656 2.50356C6.57183 2.50356 5.24203 3.05142 4.14714 4.14714C3.05225 5.24286 2.50439 6.57267 2.50356 8.13656C2.50356 9.70128 3.05142 11.0315 4.14714 12.1272C5.24286 13.2229 6.57267 13.7704 8.13656 13.7696Z" fill="white"/>
</svg>
