<svg width="34" height="34" viewBox="0 0 34 34" fill="none" xmlns="http://www.w3.org/2000/svg">
<path d="M6.54499 25.67C7.98999 24.565 9.60499 23.694 11.39 23.0571C13.175 22.4201 15.045 22.1011 17 22.1C18.955 22.1 20.825 22.419 22.61 23.0571C24.395 23.6951 26.01 24.5661 27.455 25.67C28.4466 24.5083 29.219 23.1908 29.7721 21.7175C30.3251 20.2441 30.6011 18.6716 30.6 17C30.6 13.2317 29.2757 10.0226 26.6271 7.37289C23.9785 4.72316 20.7694 3.39886 17 3.4C13.2317 3.4 10.0226 4.72486 7.37289 7.37459C4.72316 10.0243 3.39886 13.2328 3.4 17C3.4 18.6716 3.67653 20.2441 4.22959 21.7175C4.78266 23.1908 5.55446 24.5083 6.54499 25.67ZM17 18.7C15.3283 18.7 13.9184 18.1265 12.7704 16.9796C11.6223 15.8326 11.0489 14.4228 11.05 12.75C11.05 11.0783 11.624 9.66845 12.7721 8.52039C13.9201 7.37232 15.3294 6.79886 17 6.79999C18.6716 6.79999 20.0815 7.37402 21.2296 8.52209C22.3776 9.67015 22.9511 11.0795 22.95 12.75C22.95 14.4216 22.3765 15.8315 21.2296 16.9796C20.0826 18.1276 18.6728 18.7011 17 18.7ZM17 34C14.6483 34 12.4383 33.5534 10.37 32.6604C8.30166 31.7673 6.50249 30.5563 4.97249 29.0275C3.4425 27.4975 2.23153 25.6983 1.3396 23.63C0.447666 21.5616 0.00113333 19.3516 0 17C0 14.6483 0.446533 12.4383 1.3396 10.37C2.23266 8.30166 3.44363 6.50249 4.97249 4.97249C6.50249 3.4425 8.30166 2.23153 10.37 1.3396C12.4383 0.447666 14.6483 0.00113333 17 0C19.3516 0 21.5616 0.446533 23.63 1.3396C25.6983 2.23266 27.4975 3.44363 29.0275 4.97249C30.5575 6.50249 31.769 8.30166 32.6621 10.37C33.5551 12.4383 34.0011 14.6483 34 17C34 19.3516 33.5534 21.5616 32.6604 23.63C31.7673 25.6983 30.5563 27.4975 29.0275 29.0275C27.4975 30.5575 25.6983 31.769 23.63 32.6621C21.5616 33.5551 19.3516 34.0011 17 34Z" fill="white"/>
</svg>
