<svg width="27" height="27" viewBox="0 0 27 27" fill="none" xmlns="http://www.w3.org/2000/svg">
<path d="M3.375 27C2.44687 27 1.65262 26.6698 0.992249 26.0094C0.331874 25.349 0.001125 24.5542 0 23.625C0 22.6969 0.330749 21.9026 0.992249 21.2422C1.65375 20.5819 2.448 20.2511 3.375 20.25C4.30312 20.25 5.09793 20.5807 5.75943 21.2422C6.42093 21.9037 6.75112 22.698 6.74999 23.625C6.74999 24.5531 6.41981 25.3479 5.75943 26.0094C5.09906 26.6709 4.30425 27.0011 3.375 27ZM13.5 27C12.5719 27 11.7776 26.6698 11.1172 26.0094C10.4569 25.349 10.1261 24.5542 10.125 23.625C10.125 22.6969 10.4557 21.9026 11.1172 21.2422C11.7787 20.5819 12.573 20.2511 13.5 20.25C14.4281 20.25 15.2229 20.5807 15.8844 21.2422C16.5459 21.9037 16.8761 22.698 16.875 23.625C16.875 24.5531 16.5448 25.3479 15.8844 26.0094C15.224 26.6709 14.4292 27.0011 13.5 27ZM23.625 27C22.6969 27 21.9026 26.6698 21.2422 26.0094C20.5819 25.349 20.2511 24.5542 20.25 23.625C20.25 22.6969 20.5807 21.9026 21.2422 21.2422C21.9037 20.5819 22.698 20.2511 23.625 20.25C24.5531 20.25 25.3479 20.5807 26.0094 21.2422C26.6709 21.9037 27.0011 22.698 27 23.625C27 24.5531 26.6698 25.3479 26.0094 26.0094C25.349 26.6709 24.5542 27.0011 23.625 27ZM3.375 16.875C2.44687 16.875 1.65262 16.5448 0.992249 15.8844C0.331874 15.224 0.001125 14.4292 0 13.5C0 12.5719 0.330749 11.7776 0.992249 11.1172C1.65375 10.4569 2.448 10.1261 3.375 10.125C4.30312 10.125 5.09793 10.4557 5.75943 11.1172C6.42093 11.7787 6.75112 12.573 6.74999 13.5C6.74999 14.4281 6.41981 15.2229 5.75943 15.8844C5.09906 16.5459 4.30425 16.8761 3.375 16.875ZM13.5 16.875C12.5719 16.875 11.7776 16.5448 11.1172 15.8844C10.4569 15.224 10.1261 14.4292 10.125 13.5C10.125 12.5719 10.4557 11.7776 11.1172 11.1172C11.7787 10.4569 12.573 10.1261 13.5 10.125C14.4281 10.125 15.2229 10.4557 15.8844 11.1172C16.5459 11.7787 16.8761 12.573 16.875 13.5C16.875 14.4281 16.5448 15.2229 15.8844 15.8844C15.224 16.5459 14.4292 16.8761 13.5 16.875ZM23.625 16.875C22.6969 16.875 21.9026 16.5448 21.2422 15.8844C20.5819 15.224 20.2511 14.4292 20.25 13.5C20.25 12.5719 20.5807 11.7776 21.2422 11.1172C21.9037 10.4569 22.698 10.1261 23.625 10.125C24.5531 10.125 25.3479 10.4557 26.0094 11.1172C26.6709 11.7787 27.0011 12.573 27 13.5C27 14.4281 26.6698 15.2229 26.0094 15.8844C25.349 16.5459 24.5542 16.8761 23.625 16.875ZM3.375 6.74999C2.44687 6.74999 1.65262 6.41981 0.992249 5.75943C0.331874 5.09906 0.001125 4.30425 0 3.375C0 2.44687 0.330749 1.65262 0.992249 0.992249C1.65375 0.331874 2.448 0.001125 3.375 0C4.30312 0 5.09793 0.330749 5.75943 0.992249C6.42093 1.65375 6.75112 2.448 6.74999 3.375C6.74999 4.30312 6.41981 5.09793 5.75943 5.75943C5.09906 6.42093 4.30425 6.75112 3.375 6.74999ZM13.5 6.74999C12.5719 6.74999 11.7776 6.41981 11.1172 5.75943C10.4569 5.09906 10.1261 4.30425 10.125 3.375C10.125 2.44687 10.4557 1.65262 11.1172 0.992249C11.7787 0.331874 12.573 0.001125 13.5 0C14.4281 0 15.2229 0.330749 15.8844 0.992249C16.5459 1.65375 16.8761 2.448 16.875 3.375C16.875 4.30312 16.5448 5.09793 15.8844 5.75943C15.224 6.42093 14.4292 6.75112 13.5 6.74999ZM23.625 6.74999C22.6969 6.74999 21.9026 6.41981 21.2422 5.75943C20.5819 5.09906 20.2511 4.30425 20.25 3.375C20.25 2.44687 20.5807 1.65262 21.2422 0.992249C21.9037 0.331874 22.698 0.001125 23.625 0C24.5531 0 25.3479 0.330749 26.0094 0.992249C26.6709 1.65375 27.0011 2.448 27 3.375C27 4.30312 26.6698 5.09793 26.0094 5.75943C25.349 6.42093 24.5542 6.75112 23.625 6.74999Z" fill="white"/>
</svg>
