<svg width="34" height="32" viewBox="0 0 34 32" fill="none" xmlns="http://www.w3.org/2000/svg">
<path d="M6.79999 27.2L2.89 31.11C2.35167 31.6483 1.73513 31.769 1.0404 31.4721C0.345669 31.1751 -0.00113056 30.6436 2.76873e-06 29.8775V3.4C2.76873e-06 2.465 0.333202 1.66486 0.999602 0.999599C1.666 0.334333 2.46613 0.00113333 3.4 0H30.6C31.535 0 32.3357 0.3332 33.0021 0.999599C33.6685 1.666 34.0011 2.46613 34 3.4V23.8C34 24.735 33.6673 25.5357 33.0021 26.2021C32.3368 26.8685 31.5361 27.2011 30.6 27.2H6.79999ZM15.3 15.3V18.7C15.3 19.1816 15.4632 19.5857 15.7896 19.9121C16.116 20.2385 16.5194 20.4011 17 20.4C17.4816 20.4 17.8857 20.2368 18.2121 19.9104C18.5385 19.584 18.7011 19.1805 18.7 18.7V15.3H22.1C22.5816 15.3 22.9857 15.1368 23.3121 14.8104C23.6385 14.484 23.8011 14.0805 23.8 13.6C23.8 13.1183 23.6368 12.7149 23.3104 12.3896C22.984 12.0643 22.5805 11.9011 22.1 11.9H18.7V8.49999C18.7 8.01832 18.5368 7.61486 18.2104 7.28959C17.884 6.96432 17.4805 6.80112 17 6.79999C16.5183 6.79999 16.1149 6.96319 15.7896 7.28959C15.4643 7.61599 15.3011 8.01946 15.3 8.49999V11.9H11.9C11.4183 11.9 11.0149 12.0632 10.6896 12.3896C10.3643 12.716 10.2011 13.1195 10.2 13.6C10.2 14.0816 10.3632 14.4857 10.6896 14.8121C11.016 15.1385 11.4195 15.3011 11.9 15.3H15.3Z" fill="white"/>
</svg>
