<svg width="30" height="30" viewBox="0 0 30 30" fill="none" xmlns="http://www.w3.org/2000/svg">
<path d="M11.0953 22.1906C7.9943 22.1906 5.37012 21.1163 3.22276 18.9678C1.07539 16.8193 0.00113798 14.1952 0 11.0953C0 7.9943 1.07425 5.37012 3.22276 3.22276C5.37126 1.07539 7.99544 0.00113798 11.0953 0C14.1963 0 16.821 1.07425 18.9695 3.22276C21.1181 5.37126 22.1917 7.99544 22.1906 11.0953C22.1906 12.3471 21.9914 13.5277 21.5932 14.6373C21.1949 15.7468 20.6543 16.7283 19.9715 17.5818L29.5306 27.1408C29.8435 27.4537 30 27.852 30 28.3357C30 28.8193 29.8435 29.2176 29.5306 29.5306C29.2176 29.8435 28.8193 30 28.3357 30C27.852 30 27.4537 29.8435 27.1408 29.5306L17.5818 19.9715C16.7283 20.6543 15.7468 21.1949 14.6373 21.5932C13.5277 21.9914 12.3471 22.1906 11.0953 22.1906ZM11.0953 18.7767C13.229 18.7767 15.0429 18.0301 16.5371 16.5371C18.0313 15.0441 18.7778 13.2301 18.7767 11.0953C18.7767 8.96159 18.0301 7.14822 16.5371 5.65519C15.0441 4.16216 13.2301 3.41508 11.0953 3.41394C8.96159 3.41394 7.14822 4.16102 5.65519 5.65519C4.16216 7.14935 3.41508 8.96272 3.41394 11.0953C3.41394 13.229 4.16102 15.0429 5.65519 16.5371C7.14935 18.0313 8.96272 18.7778 11.0953 18.7767Z" fill="white"/>
</svg>
