<svg width="50" height="25" viewBox="0 0 50 25" fill="none" xmlns="http://www.w3.org/2000/svg">
<path d="M21.4062 12.5C20.434 12.5 19.6354 12.1354 19.0104 11.4063C18.3854 10.6771 18.1597 9.82639 18.3333 8.85417L18.9583 5.10417C19.2361 3.61111 19.9396 2.38681 21.0687 1.43125C22.1979 0.475697 23.5083 -0.00138587 25 3.02371e-06C26.5278 3.02371e-06 27.8562 0.477781 28.9854 1.43334C30.1146 2.38889 30.8174 3.6125 31.0938 5.10417L31.7188 8.85417C31.8924 9.82639 31.6667 10.6771 31.0417 11.4063C30.4167 12.1354 29.6181 12.5 28.6458 12.5H21.4062ZM22.6562 8.33334H27.3958L26.9792 5.78125C26.9097 5.29514 26.684 4.90486 26.3021 4.61042C25.9201 4.31598 25.4861 4.16806 25 4.16667C24.5139 4.16667 24.0889 4.31459 23.725 4.61042C23.3611 4.90625 23.1437 5.29653 23.0729 5.78125L22.6562 8.33334ZM6.45833 14.5313C5.65972 14.566 4.97361 14.4097 4.4 14.0625C3.82639 13.7153 3.45347 13.1771 3.28125 12.4479C3.21181 12.1354 3.19444 11.8229 3.22917 11.5104C3.26389 11.1979 3.35069 10.9028 3.48958 10.625C3.48958 10.6597 3.47222 10.5903 3.4375 10.4167C3.36806 10.3472 3.19444 9.93056 2.91667 9.16667C2.84722 8.75 2.89931 8.3507 3.07292 7.96875C3.24653 7.58681 3.47222 7.25695 3.75 6.97917L3.85417 6.875C3.92361 6.21528 4.19306 5.65973 4.6625 5.20834C5.13194 4.75695 5.71319 4.53125 6.40625 4.53125C6.51042 4.53125 6.84028 4.6007 7.39583 4.73959L7.55208 4.6875C7.72569 4.51389 7.95139 4.38403 8.22917 4.29792C8.50694 4.21181 8.80208 4.16806 9.11458 4.16667C9.49653 4.16667 9.83542 4.22778 10.1312 4.35C10.4271 4.47223 10.6611 4.65417 10.8333 4.89584C10.8681 4.89584 10.8944 4.90486 10.9125 4.92292C10.9306 4.94097 10.9563 4.94931 10.9896 4.94792C11.4757 4.98264 11.9007 5.12986 12.2646 5.38959C12.6285 5.64931 12.8979 6.00556 13.0729 6.45834C13.1424 6.70139 13.1687 6.93611 13.1521 7.1625C13.1354 7.38889 13.0917 7.60556 13.0208 7.8125C13.0208 7.84722 13.0382 7.91667 13.0729 8.02084C13.316 8.26389 13.5069 8.53334 13.6458 8.82917C13.7847 9.125 13.8542 9.42848 13.8542 9.73959C13.8542 9.87848 13.75 10.2431 13.5417 10.8333C13.5069 10.9028 13.5069 10.9722 13.5417 11.0417L13.6458 11.875C13.6458 12.6042 13.3424 13.2292 12.7354 13.75C12.1285 14.2708 11.3903 14.5313 10.5208 14.5313H6.45833ZM41.6667 14.5833C40.5208 14.5833 39.5403 14.1757 38.725 13.3604C37.9097 12.5451 37.5014 11.5639 37.5 10.4167C37.5 10 37.5611 9.60972 37.6833 9.24584C37.8056 8.88195 37.9701 8.5257 38.1771 8.17709L36.7188 6.875C36.3715 6.59723 36.3104 6.25 36.5354 5.83334C36.7604 5.41667 37.0819 5.20834 37.5 5.20834H41.6667C42.8125 5.20834 43.7937 5.61667 44.6104 6.43334C45.4271 7.25 45.8347 8.23056 45.8333 9.375V10.4167C45.8333 11.5625 45.4257 12.5438 44.6104 13.3604C43.7951 14.1771 42.8139 14.5847 41.6667 14.5833ZM0 22.9167V21.7188C0 20.191 0.772917 18.9667 2.31875 18.0458C3.86458 17.125 5.86944 16.6653 8.33333 16.6667C8.78472 16.6667 9.21875 16.6757 9.63542 16.6938C10.0521 16.7118 10.4514 16.7549 10.8333 16.8229C10.3472 17.5174 9.98264 18.2639 9.73958 19.0625C9.49653 19.8611 9.375 20.7118 9.375 21.6146V25H2.08333C1.49306 25 0.998611 24.8 0.6 24.4C0.201389 24 0.00138889 23.5056 0 22.9167ZM12.5 22.9167V21.6146C12.5 19.3576 13.6549 17.5347 15.9646 16.1458C18.2743 14.7569 21.2861 14.0625 25 14.0625C28.75 14.0625 31.7708 14.7569 34.0625 16.1458C36.3542 17.5347 37.5 19.3576 37.5 21.6146V22.9167C37.5 23.5069 37.3 24.0021 36.9 24.4021C36.5 24.8021 36.0056 25.0014 35.4167 25H14.5833C13.9931 25 13.4986 24.8 13.1 24.4C12.7014 24 12.5014 23.5056 12.5 22.9167ZM41.6667 16.6667C44.1667 16.6667 46.1806 17.1271 47.7083 18.0479C49.2361 18.9688 50 20.1924 50 21.7188V22.9167C50 23.5069 49.8 24.0021 49.4 24.4021C49 24.8021 48.5056 25.0014 47.9167 25H40.625V21.6146C40.625 20.7118 40.5125 19.8611 40.2875 19.0625C40.0625 18.2639 39.7236 17.5174 39.2708 16.8229C39.6528 16.7535 40.0437 16.7104 40.4437 16.6938C40.8438 16.6771 41.2514 16.6681 41.6667 16.6667ZM25 18.2292C23.0208 18.2292 21.25 18.4896 19.6875 19.0104C18.125 19.5313 17.2049 20.1389 16.9271 20.8333H33.125C32.8125 20.1389 31.8833 19.5313 30.3375 19.0104C28.7917 18.4896 27.0125 18.2292 25 18.2292Z" fill="white"/>
</svg>
