<svg width="34" height="42" viewBox="0 0 34 42" fill="none" xmlns="http://www.w3.org/2000/svg">
<path d="M16.8 29.4C20.37 26.18 22.6625 23.9134 23.6775 22.6002C24.6925 21.287 25.2 19.9836 25.2 18.69C25.2 17.43 24.745 16.345 23.835 15.435C22.925 14.525 21.84 14.07 20.58 14.07C19.845 14.07 19.1359 14.2184 18.4527 14.5152C17.7695 14.812 17.2186 15.2236 16.8 15.75C16.38 15.225 15.8375 14.8141 15.1725 14.5173C14.5075 14.2205 13.79 14.0714 13.02 14.07C11.76 14.07 10.675 14.525 9.765 15.435C8.855 16.345 8.4 17.43 8.4 18.69C8.4 19.355 8.4875 19.9675 8.6625 20.5275C8.8375 21.0875 9.2225 21.7441 9.8175 22.4973C10.4125 23.2491 11.2609 24.1675 12.3627 25.2525C13.4645 26.3375 14.9436 27.72 16.8 29.4ZM16.8 42C11.935 40.775 7.9184 37.9834 4.7502 33.6252C1.582 29.267 -0.00139907 24.4286 9.27562e-07 19.11V6.3L16.8 0L33.6 6.3V19.11C33.6 24.43 32.0166 29.2691 28.8498 33.6273C25.683 37.9855 21.6664 40.7764 16.8 42Z" fill="white"/>
</svg>
