<svg width="34" height="42" viewBox="0 0 34 42" fill="none" xmlns="http://www.w3.org/2000/svg">
<path d="M7.35 42C5.32 42 3.5875 41.2825 2.1525 39.8475C0.7175 38.4125 0 36.68 0 34.65V7.35C0 5.32 0.7175 3.5875 2.1525 2.1525C3.5875 0.7175 5.32 0 7.35 0H33.6V31.5C32.725 31.5 31.9816 31.8066 31.3698 32.4198C30.758 33.033 30.4514 33.7764 30.45 34.65C30.45 35.525 30.7566 36.2691 31.3698 36.8823C31.983 37.4955 32.7264 37.8014 33.6 37.8V42H7.35ZM4.2 27.9825C4.69 27.7375 5.1975 27.5625 5.7225 27.4575C6.2475 27.3525 6.79 27.3 7.35 27.3H8.4V4.2H7.35C6.475 4.2 5.7316 4.5066 5.1198 5.1198C4.508 5.733 4.2014 6.4764 4.2 7.35V27.9825ZM12.6 27.3H29.4V4.2H12.6V27.3ZM7.35 37.8H26.9325C26.7225 37.31 26.5566 36.8116 26.4348 36.3048C26.313 35.798 26.2514 35.2464 26.25 34.65C26.25 34.09 26.3025 33.5475 26.4075 33.0225C26.5125 32.4975 26.6875 31.99 26.9325 31.5H7.35C6.44 31.5 5.6875 31.8066 5.0925 32.4198C4.4975 33.033 4.2 33.7764 4.2 34.65C4.2 35.56 4.4975 36.3125 5.0925 36.9075C5.6875 37.5025 6.44 37.8 7.35 37.8Z" fill="white"/>
</svg>
