<svg width="42" height="25" viewBox="0 0 42 25" fill="none" xmlns="http://www.w3.org/2000/svg">
<path d="M4.16667 25C3.02083 25 2.04028 24.5924 1.225 23.7771C0.409722 22.9618 0.00138889 21.9806 0 20.8333V4.16667C0 3.02083 0.408334 2.04028 1.225 1.225C2.04167 0.409722 3.02222 0.00138889 4.16667 0H37.5C38.6458 0 39.6271 0.408333 40.4438 1.225C41.2604 2.04167 41.6681 3.02222 41.6667 4.16667V20.8333C41.6667 21.9792 41.259 22.9604 40.4438 23.7771C39.6285 24.5938 38.6472 25.0014 37.5 25H4.16667ZM10.4167 18.75H14.5833V14.5833H18.75V10.4167H14.5833V6.25H10.4167V10.4167H6.25V14.5833H10.4167V18.75ZM26.0417 18.75C26.9097 18.75 27.6479 18.4465 28.2563 17.8396C28.8646 17.2326 29.1681 16.4944 29.1667 15.625C29.1667 14.7569 28.8632 14.0194 28.2563 13.4125C27.6493 12.8056 26.9111 12.5014 26.0417 12.5C25.1736 12.5 24.4361 12.8042 23.8292 13.4125C23.2222 14.0208 22.9181 14.7583 22.9167 15.625C22.9167 16.4931 23.2208 17.2312 23.8292 17.8396C24.4375 18.4479 25.175 18.7514 26.0417 18.75ZM32.2917 12.5C33.1597 12.5 33.8979 12.1965 34.5063 11.5896C35.1146 10.9826 35.4181 10.2444 35.4167 9.375C35.4167 8.50694 35.1132 7.76944 34.5063 7.1625C33.8993 6.55555 33.1611 6.25139 32.2917 6.25C31.4236 6.25 30.6861 6.55417 30.0792 7.1625C29.4722 7.77083 29.1681 8.50833 29.1667 9.375C29.1667 10.2431 29.4708 10.9812 30.0792 11.5896C30.6875 12.1979 31.425 12.5014 32.2917 12.5Z" fill="white"/>
</svg>
